<mxfile host="app.diagrams.net" modified="2021-08-22T12:44:59.212Z" agent="5.0 (Macintosh; Intel Mac OS X 10_15_7) AppleWebKit/537.36 (KHTML, like Gecko) Chrome/86.0.4240.193 Safari/537.36" etag="uHFhDcr2TV8m0Ivpr9dI" version="14.9.8" type="github">
  <diagram id="EYnMZzgZ-6InwEzHp67t" name="Page-1">
    <mxGraphModel dx="946" dy="536" grid="1" gridSize="10" guides="1" tooltips="1" connect="1" arrows="1" fold="1" page="1" pageScale="1" pageWidth="827" pageHeight="1169" math="0" shadow="0">
      <root>
        <mxCell id="0" />
        <mxCell id="1" parent="0" />
        <mxCell id="zAP1536a61FVfMZI49qg-10" style="rounded=0;orthogonalLoop=1;jettySize=auto;html=1;exitX=0;exitY=0.5;exitDx=0;exitDy=0;entryX=0.8;entryY=0.033;entryDx=0;entryDy=0;entryPerimeter=0;" edge="1" parent="1" source="zAP1536a61FVfMZI49qg-1" target="zAP1536a61FVfMZI49qg-2">
          <mxGeometry relative="1" as="geometry" />
        </mxCell>
        <mxCell id="zAP1536a61FVfMZI49qg-12" style="edgeStyle=none;rounded=0;orthogonalLoop=1;jettySize=auto;html=1;exitX=1;exitY=0.5;exitDx=0;exitDy=0;" edge="1" parent="1" source="zAP1536a61FVfMZI49qg-1" target="zAP1536a61FVfMZI49qg-3">
          <mxGeometry relative="1" as="geometry" />
        </mxCell>
        <mxCell id="zAP1536a61FVfMZI49qg-1" value="5" style="ellipse;whiteSpace=wrap;html=1;aspect=fixed;fillColor=#dae8fc;strokeColor=#6c8ebf;" vertex="1" parent="1">
          <mxGeometry x="280" y="110" width="60" height="60" as="geometry" />
        </mxCell>
        <mxCell id="zAP1536a61FVfMZI49qg-11" style="edgeStyle=none;rounded=0;orthogonalLoop=1;jettySize=auto;html=1;exitX=0;exitY=1;exitDx=0;exitDy=0;entryX=0.633;entryY=0;entryDx=0;entryDy=0;entryPerimeter=0;" edge="1" parent="1" source="zAP1536a61FVfMZI49qg-2" target="zAP1536a61FVfMZI49qg-4">
          <mxGeometry relative="1" as="geometry" />
        </mxCell>
        <mxCell id="zAP1536a61FVfMZI49qg-13" style="edgeStyle=none;rounded=0;orthogonalLoop=1;jettySize=auto;html=1;exitX=1;exitY=1;exitDx=0;exitDy=0;entryX=0.4;entryY=-0.05;entryDx=0;entryDy=0;entryPerimeter=0;" edge="1" parent="1" source="zAP1536a61FVfMZI49qg-2" target="zAP1536a61FVfMZI49qg-5">
          <mxGeometry relative="1" as="geometry" />
        </mxCell>
        <mxCell id="zAP1536a61FVfMZI49qg-2" value="3" style="ellipse;whiteSpace=wrap;html=1;aspect=fixed;fillColor=#fff2cc;strokeColor=#d6b656;" vertex="1" parent="1">
          <mxGeometry x="190" y="200" width="60" height="60" as="geometry" />
        </mxCell>
        <mxCell id="zAP1536a61FVfMZI49qg-14" style="edgeStyle=none;rounded=0;orthogonalLoop=1;jettySize=auto;html=1;exitX=0;exitY=1;exitDx=0;exitDy=0;entryX=0.5;entryY=0;entryDx=0;entryDy=0;" edge="1" parent="1" source="zAP1536a61FVfMZI49qg-3" target="zAP1536a61FVfMZI49qg-6">
          <mxGeometry relative="1" as="geometry" />
        </mxCell>
        <mxCell id="zAP1536a61FVfMZI49qg-15" style="edgeStyle=none;rounded=0;orthogonalLoop=1;jettySize=auto;html=1;exitX=1;exitY=1;exitDx=0;exitDy=0;entryX=0.267;entryY=0;entryDx=0;entryDy=0;entryPerimeter=0;" edge="1" parent="1" source="zAP1536a61FVfMZI49qg-3" target="zAP1536a61FVfMZI49qg-7">
          <mxGeometry relative="1" as="geometry" />
        </mxCell>
        <mxCell id="zAP1536a61FVfMZI49qg-3" value="4" style="ellipse;whiteSpace=wrap;html=1;aspect=fixed;fillColor=#dae8fc;strokeColor=#6c8ebf;" vertex="1" parent="1">
          <mxGeometry x="354" y="200" width="60" height="60" as="geometry" />
        </mxCell>
        <mxCell id="zAP1536a61FVfMZI49qg-4" value="1" style="ellipse;whiteSpace=wrap;html=1;aspect=fixed;fillColor=#fff2cc;strokeColor=#d6b656;" vertex="1" parent="1">
          <mxGeometry x="140" y="290" width="60" height="60" as="geometry" />
        </mxCell>
        <mxCell id="zAP1536a61FVfMZI49qg-5" value="2" style="ellipse;whiteSpace=wrap;html=1;aspect=fixed;fillColor=#fff2cc;strokeColor=#d6b656;" vertex="1" parent="1">
          <mxGeometry x="230" y="290" width="60" height="60" as="geometry" />
        </mxCell>
        <mxCell id="zAP1536a61FVfMZI49qg-6" value="2" style="ellipse;whiteSpace=wrap;html=1;aspect=fixed;fillColor=#dae8fc;strokeColor=#6c8ebf;" vertex="1" parent="1">
          <mxGeometry x="310" y="290" width="60" height="60" as="geometry" />
        </mxCell>
        <mxCell id="zAP1536a61FVfMZI49qg-16" style="edgeStyle=none;rounded=0;orthogonalLoop=1;jettySize=auto;html=1;exitX=0;exitY=1;exitDx=0;exitDy=0;entryX=0.733;entryY=0.05;entryDx=0;entryDy=0;entryPerimeter=0;" edge="1" parent="1" source="zAP1536a61FVfMZI49qg-7" target="zAP1536a61FVfMZI49qg-8">
          <mxGeometry relative="1" as="geometry" />
        </mxCell>
        <mxCell id="zAP1536a61FVfMZI49qg-17" style="edgeStyle=none;rounded=0;orthogonalLoop=1;jettySize=auto;html=1;exitX=1;exitY=1;exitDx=0;exitDy=0;entryX=0.283;entryY=0.017;entryDx=0;entryDy=0;entryPerimeter=0;" edge="1" parent="1" source="zAP1536a61FVfMZI49qg-7" target="zAP1536a61FVfMZI49qg-9">
          <mxGeometry relative="1" as="geometry" />
        </mxCell>
        <mxCell id="zAP1536a61FVfMZI49qg-7" value="3" style="ellipse;whiteSpace=wrap;html=1;aspect=fixed;fillColor=#fff2cc;strokeColor=#d6b656;" vertex="1" parent="1">
          <mxGeometry x="414" y="290" width="60" height="60" as="geometry" />
        </mxCell>
        <mxCell id="zAP1536a61FVfMZI49qg-8" value="1" style="ellipse;whiteSpace=wrap;html=1;aspect=fixed;fillColor=#fff2cc;strokeColor=#d6b656;" vertex="1" parent="1">
          <mxGeometry x="354" y="380" width="60" height="60" as="geometry" />
        </mxCell>
        <mxCell id="zAP1536a61FVfMZI49qg-9" value="2" style="ellipse;whiteSpace=wrap;html=1;aspect=fixed;fillColor=#fff2cc;strokeColor=#d6b656;" vertex="1" parent="1">
          <mxGeometry x="480" y="380" width="60" height="60" as="geometry" />
        </mxCell>
      </root>
    </mxGraphModel>
  </diagram>
</mxfile>
